<?xml version="1.0" encoding="utf-8"?>
<!-- Generator: Adobe Illustrator 19.2.1, SVG Export Plug-In . SVG Version: 6.00 Build 0)  -->
<svg version="1.1" id="layer" xmlns="http://www.w3.org/2000/svg" xmlns:xlink="http://www.w3.org/1999/xlink" x="0px" y="0px"
	 viewBox="0 0 652 652" style="enable-background:new 0 0 652 652;" xml:space="preserve">
<style type="text/css">
	.st0{fill:#FFFFFF;}
	.st1{clip-path:url(#SVGID_2_);fill:#FFFFFF;}
</style>
<path class="st0" d="M20.1,404h600V240.4h-600V404z"/>
<g>
	<defs>
		<rect id="SVGID_1_" x="20.1" y="240.4" width="600" height="163.6"/>
	</defs>
	<use xlink:href="#SVGID_1_"  style="overflow:visible;fill:#ED1941;"/>
	<clipPath id="SVGID_2_">
		<use xlink:href="#SVGID_1_"  style="overflow:visible;"/>
	</clipPath>
	<path class="st1" d="M158.8,311.5c0,2.9-2.1,5.8-5.6,5.8h-6.6c-0.2,0-0.3-0.2-0.3-0.3V306c0-0.2,0.1-0.3,0.3-0.3h6.6
		C156.7,305.7,158.8,308.6,158.8,311.5L158.8,311.5z M175.4,348L161,326.6c2.7-1.2,9.4-5.3,9.5-15.4c0-4.3-1.7-8.4-4.7-11.5
		c-3-3.1-7-4.8-11.3-4.8h-19c-0.5,0-0.9,0.4-0.9,0.9v52.8c0,0.5,0.4,0.9,0.9,0.9h9.9c0.5,0,0.9-0.4,0.9-0.9v-20.4h3.5l12.3,20.9
		c0.2,0.3,0.4,0.4,0.7,0.4h11.8c0.3,0,0.7-0.2,0.8-0.5C175.6,348.7,175.6,348.3,175.4,348"/>
	<path class="st1" d="M548.8,311.5c0,2.9-2.1,5.8-5.6,5.8h-6.6c-0.2,0-0.3-0.2-0.3-0.3V306c0-0.2,0.1-0.3,0.3-0.3h6.6
		C546.7,305.7,548.8,308.6,548.8,311.5L548.8,311.5z M565.4,348L551,326.6c2.7-1.2,9.4-5.3,9.5-15.4c0-4.3-1.7-8.4-4.7-11.5
		c-3-3.1-7-4.8-11.3-4.8h-19c-0.5,0-0.9,0.4-0.9,0.9v52.8c0,0.5,0.4,0.9,0.9,0.9h9.9c0.5,0,0.9-0.4,0.9-0.9v-20.4h3.5l12.3,20.9
		c0.2,0.3,0.4,0.4,0.7,0.4h11.8c0.3,0,0.7-0.2,0.8-0.5S565.6,348.3,565.4,348"/>
	<path class="st1" d="M116.4,295.8v9.3c0,0.5-0.4,0.9-0.9,0.9h-14.3v42.6c0,0.5-0.4,0.9-0.9,0.9h-9.6c-0.5,0-0.9-0.4-0.9-0.9V306
		H75.5c-0.5,0-0.9-0.4-0.9-0.9v-9.3c0-0.5,0.4-0.9,0.9-0.9h40C116,294.9,116.4,295.3,116.4,295.8"/>
	<path class="st1" d="M276.1,325.4h-17.8v23.2c0,0.5-0.4,0.9-0.9,0.9h-9.6c-0.5,0-0.9-0.4-0.9-0.9v-52.8c0-0.5,0.4-0.9,0.9-0.9h28.9
		c0.5,0,0.9,0.4,0.9,0.9v9.3c0,0.5-0.4,0.9-0.9,0.9h-18.4v8.3h17.8c0.5,0,0.9,0.4,0.9,0.9v9.3C277,325,276.6,325.4,276.1,325.4"/>
	<path class="st1" d="M385.4,339.3v9.3c0,0.5-0.4,0.9-0.9,0.9h-30.1c-0.5,0-0.9-0.4-0.9-0.9v-52.8c0-0.5,0.4-0.9,0.9-0.9h9.6
		c0.5,0,0.9,0.4,0.9,0.9v42.6h19.6C385,338.4,385.4,338.8,385.4,339.3"/>
	<path class="st1" d="M449.7,320.1v3.8c0,15.4-10.7,26.6-25.5,26.6c-14.6,0-27-12.9-27-28.2c0-15.7,12.4-28.5,27.6-28.5
		c15,0,22.7,11.9,22.7,11.9c0.3,0.4,0.2,0.9-0.1,1.2l-6.9,6.8c-0.2,0.2-0.4,0.3-0.7,0.2c-0.2,0-0.5-0.1-0.6-0.4l-1.2-1.7
		c-3-4.2-8.1-6.9-12.9-6.9c-9.3,0-16.5,7.6-16.5,17.2c0,9.2,7.5,17.3,16,17.3c4.7,0,10.8-3.7,12.6-9.1h-11.1c-0.5,0-0.9-0.4-0.9-0.9
		v-9.3c0-0.5,0.4-0.9,0.9-0.9h22.7C449.3,319.3,449.7,319.6,449.7,320.1"/>
	<path class="st1" d="M202.3,328.2l5.6-14.1l5.5,14.1H202.3z M232.7,348.2l-22.2-52.8c-0.1-0.3-0.4-0.5-0.8-0.5h-3.4
		c-0.3,0-0.6,0.2-0.8,0.5l-22.2,52.8c-0.1,0.3-0.1,0.6,0.1,0.8c0.2,0.3,0.4,0.4,0.7,0.4h9.9c0.3,0,0.7-0.2,0.8-0.5l4.9-10.9h16.8
		l4.9,10.9c0.1,0.3,0.4,0.5,0.8,0.5h9.9c0.3,0,0.6-0.2,0.7-0.4C232.8,348.8,232.8,348.5,232.7,348.2"/>
	<path class="st1" d="M307.4,328.2l5.6-14.1l5.5,14.1H307.4z M337.7,348.2l-22.2-52.8c-0.1-0.3-0.4-0.5-0.8-0.5h-3.4
		c-0.4,0-0.6,0.2-0.8,0.5l-22.2,52.8c-0.1,0.3-0.1,0.6,0.1,0.8c0.2,0.3,0.4,0.4,0.7,0.4h9.9c0.3,0,0.6-0.2,0.8-0.5l4.8-10.9h16.8
		l4.9,10.9c0.1,0.3,0.4,0.5,0.8,0.5h9.9c0.3,0,0.6-0.2,0.7-0.4C337.8,348.8,337.8,348.5,337.7,348.2"/>
	<path class="st1" d="M479.3,328.2l5.6-14.1l5.5,14.1H479.3z M509.6,348.2l-22.2-52.8c-0.1-0.3-0.4-0.5-0.8-0.5h-3.4
		c-0.3,0-0.6,0.2-0.8,0.5l-22.2,52.8c-0.1,0.3-0.1,0.6,0.1,0.8c0.2,0.3,0.4,0.4,0.7,0.4h9.9c0.3,0,0.7-0.2,0.8-0.5l4.8-10.9h16.8
		l4.9,10.9c0.1,0.3,0.4,0.5,0.8,0.5h9.9c0.3,0,0.6-0.2,0.7-0.4C509.7,348.8,509.7,348.5,509.6,348.2"/>
</g>
</svg>
