<svg xmlns="http://www.w3.org/2000/svg" viewBox="0 0 399.6525 274.3026" height="274.3" width="399.65">
 <defs>
  <clipPath id="0">
   <path d="m0 841.89h595.28v-841.89h-595.28v841.89"/>
  </clipPath>
 </defs>
 <g transform="matrix(1.25 0 0-1.25-162.58 696.98)">
  <path d="m0 0l-52.615-91.96 28.331-49.688 52.612 91.96h80.94l-28.328 49.688h-80.94" fill="#e62124" transform="translate(235.29 479.78)"/>
  <path d="M 0,0 -28.332,49.688 56.659,49.69 28.328,0 0,0 Z" fill="#8ac626" transform="translate(158.39 430.1)"/>
  <g clip-path="url(#0)">
   <path d="m0 0l-3.821 7.421-3.82-7.421h7.641m-34.17 8.545h-8.541v-4.723h8.541c1.124 0 2.02.676 2.02 1.799l-.22 1.351c0 .898-.676 1.573-1.8 1.573m.9 6.296c4.494 0 8.095-3.599 8.095-7.869v-1.349c0-2.699-1.573-5.398-3.597-6.746l6.971-12.365 14.386 28.329 7.417.002 14.169-28.331h-7.421l-3.597 7.194h-13.939l-3.374-7.194h-14.616l-6.517 11.02h-7.422l.004-11.02h-7.195v28.33l16.636-.002zm158.73-11.02h14.844v-6.294h-14.844v-4.722h15.742l-.002-6.294h-22.707v28.331h22.709l-.002-6.298h-15.74v-4.723m-55.31-8.093c0 1.124-.673 2.024-1.574 2.024h-9.894c-4.271 0-7.641 3.372-7.641 7.868v1.351c0 4.272 3.374 7.869 7.645 7.869l10.564.002c1.574-.002 3.15-.225 4.498-.45l.004-6.073c-.678.225-3.602.225-4.502.225h-9.664c-.9 0-1.578-.675-1.578-1.573v-1.351c0-1.123.678-1.799 1.578-1.799h9.664c4.502 0 7.871-3.595 7.867-8.093v-1.125c.004-4.495-3.365-8.092-7.867-8.091h-10.564c-2.698 0-5.171.898-7.645 1.798l2.92 5.396c1.574-.45 3.146-.9 4.721-.9h9.894c.901 0 1.574.9 1.574 1.798v1.125m78.92 19.11l21.13-.002-3.598-6.296h-10.568v-22.03h-6.967v28.331m-45.42-.227h6.969v-28.1h-7.869l-13.266 18.661v-18.661h-6.97v28.329l7.871.002 13.261-18.44.004 18.213m-161.21.225v-28.329h-7.194v22.03h-10.569l-3.37 6.298 21.13-.002m95.33-.225l7.199.002v-28.11h-8.091l-13.04 18.661v-18.661h-6.974l.003 28.331h7.867l13.04-18.44-.004 18.213" fill="#e62124" transform="translate(279.58 542.74)"/>
  </g>
 </g>
</svg>
